PathFileType	4	(X/Y/Z)	C:\Users\°ÂÌØÂü\Desktop\20201223\Trimmed_Trimmed_bx_y_10_501.trc
DataRate	CameraRate	NumFrames	NumMarkers	Units	OrigDataRate	OrigDataStartFrame	OrigNumFrames
50.00	50.00	      8	43	mm	50.00	180	      1437
Frame#	Time	Top.Head			R.Acromium			L.Acromium			Sternum			R.ASIS			L.ASIS			V.Sacral			R.Thigh.Upper			R.Thigh.Front			R.Thigh.Rear			R.Knee.Lat			R.Knee.Med			R.Shank.Upper			R.Shank.Front			R.Shank.Rear			R.Ankle.Lat			R.Midfoot.Lat			R.Toe.Lat			R.Toe.Tip			R.Toe.Med			R.Ankle.Med			R.Midfoot.Sup			R.Heel			L.Thigh.Upper			L.Thigh.Front			L.Thigh.Rear			L.Knee.Lat			L.Knee.Med			L.Shank.Upper			L.Shank.Front			L.Shank.Rear			L.Ankle.Lat			L.Midfoot.Lat			L.Toe.Lat			L.Toe.Tip			L.Toe.Med			L.Ankle.Med			L.Midfoot.Sup			L.Heel			origin1 front left			origin2 front right			origin 3 back right			origin 4 back leftt			
		X1	Y1	Z1	X2	Y2	Z2	X3	Y3	Z3	X4	Y4	Z4	X5	Y5	Z5	X6	Y6	Z6	X7	Y7	Z7	X8	Y8	Z8	X9	Y9	Z9	X10	Y10	Z10	X11	Y11	Z11	X12	Y12	Z12	X13	Y13	Z13	X14	Y14	Z14	X15	Y15	Z15	X16	Y16	Z16	X17	Y17	Z17	X18	Y18	Z18	X19	Y19	Z19	X20	Y20	Z20	X21	Y21	Z21	X22	Y22	Z22	X23	Y23	Z23	X24	Y24	Z24	X25	Y25	Z25	X26	Y26	Z26	X27	Y27	Z27	X28	Y28	Z28	X29	Y29	Z29	X30	Y30	Z30	X31	Y31	Z31	X32	Y32	Z32	X33	Y33	Z33	X34	Y34	Z34	X35	Y35	Z35	X36	Y36	Z36	X37	Y37	Z37	X38	Y38	Z38	X39	Y39	Z39	X40	Y40	Z40	X41	Y41	Z41	X42	Y42	Z42	X43	Y43	Z43	

180	3.580	-232.07138	235.16975	1545.96973	-375.21591	54.94112	1278.76929	-359.06198	424.93948	1275.35938	-428.30814	252.30025	1208.32458	-683.08905	166.67000	1007.73450	-673.71448	375.03036	1019.21838	-882.00525	250.54106	1084.62646	-746.77588	94.22045	881.04114	-690.02698	149.34732	836.84888	-775.92273	85.56523	736.18988	-756.39703	121.73771	593.63940	-730.91089	233.18677	550.77167	-773.74805	121.27184	526.09503	-692.07587	170.14668	547.27203	-795.62646	123.12775	452.32059	-694.50452	141.50842	211.70512	-617.62762	76.76087	166.42941	-573.02069	48.99133	160.21997	-495.21390	93.22461	161.11176	-533.80603	143.60286	165.19669	-643.29755	214.59534	227.19928	-594.01227	186.38603	174.57748	-717.95026	211.57288	171.20901	-731.98523	435.65787	872.02222	-680.56042	373.03650	830.91211	-755.78113	447.58521	737.65997	-763.48615	420.11746	609.82855	-721.83588	312.58972	569.43744	-756.57336	416.72739	549.60962	-699.45355	373.52463	540.06146	-796.08813	424.75275	488.09872	-686.89551	418.59879	211.19705	-585.05768	468.47006	163.38564	-546.29047	479.51620	159.41942	-489.70465	426.68866	167.15543	-526.54749	387.68497	176.56351	-649.76196	330.34402	211.84151	-595.64722	351.82367	170.24989	-731.62988	345.04623	166.24084	-443.53717	449.06424	146.84421	-450.55246	75.15796	144.53004	-806.37286	82.61170	142.59406	-799.19336	457.70291	145.64116	
181	3.600	-241.11115	235.18422	1558.51782	-379.15698	54.74358	1288.18042	-362.32703	425.42099	1285.18335	-430.29431	252.45821	1211.63159	-681.87561	165.77733	1009.29065	-672.60132	375.41132	1020.35919	-880.70959	250.61166	1084.08057	-743.95367	94.31246	881.76831	-687.36176	149.54878	837.43884	-773.13074	85.56749	737.06305	-754.45520	121.84498	594.10815	-729.29480	233.07777	551.14551	-772.14008	121.21828	526.61816	-690.29260	170.03596	547.58704	-794.21130	123.13069	452.79269	-694.41431	141.46518	211.84271	-617.58521	76.80604	166.47256	-573.02045	48.99157	160.22914	-495.14520	93.13372	161.09584	-533.74762	143.61061	165.16963	-642.95929	214.75735	227.11659	-593.92480	186.50856	174.51874	-717.94470	211.64098	171.11253	-729.47015	435.78607	873.01483	-678.28705	372.99536	831.63092	-753.38647	447.68600	738.49988	-761.91272	420.04745	610.48193	-720.29541	312.86188	569.78815	-755.21686	416.78629	550.00006	-698.01917	373.70163	539.93805	-794.88593	424.75467	488.60776	-686.91644	418.53726	211.07211	-585.17554	468.50934	163.45923	-546.29199	479.52032	159.38605	-489.67685	426.77765	167.11101	-526.48242	387.72208	176.62776	-649.57050	330.22263	211.90617	-595.62433	351.82614	170.15076	-731.64929	344.95514	166.19620	-443.56665	449.03772	146.82222	-450.55740	75.18888	144.52939	-806.36456	82.62775	142.55124	-799.15161	457.71194	145.54912	
182	3.620	-250.36328	235.22179	1571.14551	-383.28995	54.57054	1297.75195	-365.82248	425.78683	1294.90271	-432.33890	252.61562	1215.06226	-680.60297	164.84044	1010.93158	-671.40881	375.81030	1021.53845	-879.27307	250.68300	1083.55957	-740.94061	94.44697	882.47876	-684.33136	149.82385	837.85461	-770.27649	85.62846	737.92566	-752.31592	121.96291	594.66693	-727.57874	232.97293	551.54547	-770.36981	121.33530	527.12732	-688.34778	169.91280	548.06763	-792.61859	123.20180	453.25613	-694.25195	141.41740	212.05432	-617.50208	76.87965	166.51906	-573.00793	49.05840	160.21478	-495.07050	93.06776	161.07825	-533.64679	143.68407	165.13840	-642.53473	214.97847	226.98146	-593.77069	186.62854	174.48544	-717.93701	211.75685	170.99419	-726.80237	435.82236	873.82538	-675.77197	372.95850	832.30597	-750.91388	447.75296	739.35065	-760.25696	419.92319	611.15015	-718.62494	313.05554	570.26294	-753.78839	416.81305	550.44159	-696.50555	373.86865	539.90796	-793.58258	424.77234	489.15540	-686.91656	418.49017	210.94724	-585.25415	468.56879	163.49168	-546.28845	479.49362	159.35576	-489.67365	426.88437	167.08389	-526.41504	387.74609	176.66365	-649.35364	330.11566	211.96242	-595.56641	351.81384	170.07074	-731.66345	344.85471	166.14339	-443.61090	449.03912	146.80412	-450.56509	75.24612	144.52676	-806.29553	82.65443	142.53224	-799.14746	457.69962	145.45235	
183	3.640	-259.80908	235.33618	1583.77881	-387.66360	54.40978	1307.41443	-369.46765	426.17584	1304.58752	-434.44211	252.77231	1218.61743	-679.27002	163.85957	1012.65808	-670.13556	376.22769	1022.75635	-877.59631	250.76735	1083.01978	-737.77985	94.62332	883.24921	-681.01947	150.11116	838.20398	-767.39618	85.77874	738.75470	-750.06946	122.08813	595.31238	-725.76111	232.87267	551.97192	-768.47571	121.55604	527.61609	-686.30768	169.81412	548.66962	-790.90649	123.32384	453.72986	-694.04755	141.40932	212.30174	-617.41571	76.93022	166.54999	-572.98639	49.14721	160.19659	-495.00894	93.02937	161.07887	-533.54095	143.76915	165.12393	-642.16528	215.20358	226.78783	-593.61401	186.69284	174.46651	-717.92334	211.89049	170.88724	-724.00726	435.82257	874.60028	-672.98352	373.00732	832.97504	-748.37744	447.82742	740.22119	-758.50134	419.79880	611.86359	-716.82544	313.22849	570.76257	-752.27466	416.84558	550.96320	-694.91479	374.03830	539.99579	-792.21417	424.80096	489.73651	-686.89941	418.44208	210.83929	-585.33154	468.62061	163.49280	-546.29828	479.44736	159.33699	-489.69748	426.97971	167.06804	-526.36798	387.75861	176.67009	-649.16644	330.08340	211.98532	-595.51056	351.81805	170.02121	-731.66583	344.76718	166.07898	-443.64868	449.06461	146.81194	-450.57251	75.28503	144.51390	-806.25189	82.68930	142.51973	-799.15210	457.67850	145.37836	
184	3.660	-269.47379	235.51848	1596.36011	-392.28110	54.24110	1317.14294	-373.29559	426.70764	1314.36621	-436.60406	252.92815	1222.29785	-677.87549	162.83540	1014.47040	-668.78003	376.66382	1024.01294	-875.59381	250.88196	1082.42712	-734.49695	94.83831	884.05682	-677.64093	150.33195	838.68982	-764.46387	85.97999	739.55243	-747.80060	122.22437	595.98199	-723.84027	232.77733	552.42535	-766.50494	121.77137	528.12579	-684.23883	169.74944	549.24524	-789.14581	123.46646	454.24802	-693.83899	141.47929	212.53551	-617.36169	76.94118	166.56177	-572.97412	49.20490	160.17567	-494.96002	93.00171	161.10938	-533.45416	143.82747	165.11960	-641.93268	215.37094	226.56036	-593.53418	186.69507	174.41603	-717.90759	211.99812	170.81847	-721.12415	435.83029	875.50031	-669.98944	373.20706	833.66418	-745.76355	447.94705	741.09930	-756.64368	419.71719	612.62817	-714.87469	313.52652	571.06720	-750.66748	416.89743	551.48993	-693.27698	374.19427	540.18524	-790.82129	424.81482	490.34116	-686.89197	418.33548	210.72871	-585.41962	468.63922	163.48909	-546.32770	479.40396	159.33878	-489.74048	427.04794	167.05235	-526.34998	387.77405	176.66353	-649.03705	330.11908	211.96567	-595.47528	351.83087	170.00520	-731.66400	344.70444	166.01044	-443.65958	449.09869	146.83813	-450.58636	75.26781	144.50037	-806.24500	82.72374	142.51579	-799.12512	457.70718	145.41544	
185	3.680	-279.40195	235.72171	1608.84058	-397.11578	54.05880	1326.90381	-377.42307	427.38766	1324.26282	-438.82498	253.08295	1226.10449	-676.41840	161.76822	1016.36926	-667.34076	377.11893	1025.30859	-873.27289	251.03305	1081.79492	-731.09485	95.09000	884.79779	-674.35767	150.46191	839.40662	-761.45697	86.21400	740.30267	-745.56055	122.38181	596.60205	-721.81500	232.68712	552.90637	-764.53241	121.92142	528.68988	-682.20752	169.69893	549.65411	-787.39783	123.59019	454.82715	-693.64600	141.61678	212.72073	-617.35144	76.94397	166.57135	-572.98883	49.21944	160.14328	-494.91644	92.97280	161.15575	-533.39612	143.84476	165.11436	-641.78296	215.45728	226.34805	-593.54590	186.68633	174.29938	-717.90173	212.06021	170.79201	-718.15955	435.87637	876.58765	-666.88324	373.55936	834.34656	-743.07935	448.09625	741.96027	-754.72198	419.67450	613.39374	-712.76550	314.02731	571.03595	-748.97577	416.94302	551.91699	-691.62262	374.31949	540.42871	-789.41614	424.79370	490.95877	-686.91571	418.11923	210.58922	-585.49976	468.62811	163.49741	-546.37518	479.39737	159.37547	-489.78079	427.08505	167.05247	-526.35321	387.79514	176.66014	-648.96021	330.16595	211.91689	-595.45081	351.81314	170.01439	-731.67365	344.66599	165.95558	-443.63785	449.11938	146.85959	-450.61252	75.18786	144.51465	-806.24951	82.74898	142.52917	-799.06561	457.78647	145.56860	
186	3.700	-289.62216	235.92732	1621.16370	-402.17035	53.88540	1336.61633	-381.89819	428.12195	1334.16870	-441.10498	253.23653	1230.03796	-674.89929	160.65558	1018.35748	-665.81598	377.59314	1026.64331	-870.75909	251.22469	1081.16248	-727.61627	95.35818	885.41913	-671.15039	150.53676	840.24402	-758.38318	86.52148	740.97272	-743.34601	122.56972	597.15161	-719.68353	232.60210	553.41553	-762.59912	122.01973	529.28851	-680.23511	169.64980	549.88086	-785.68176	123.68664	455.43594	-693.48932	141.78027	212.83586	-617.37109	76.97530	166.59445	-573.02625	49.20636	160.10791	-494.88071	92.94661	161.19220	-533.36053	143.82907	165.11230	-641.61194	215.50777	226.18729	-593.57947	186.72693	174.12004	-717.89465	212.09564	170.78523	-715.06165	435.99673	877.73737	-663.71680	373.99454	834.96289	-740.37872	448.23462	742.75928	-752.76239	419.64078	614.08423	-710.55621	314.64630	570.80994	-747.21228	416.96323	552.23370	-689.93903	374.44168	540.67761	-787.96063	424.72885	491.57657	-686.95355	417.82062	210.43307	-585.55853	468.62033	163.51912	-546.42511	479.44992	159.42462	-489.79138	427.10757	167.08504	-526.35663	387.80478	176.66447	-648.90088	330.17932	211.87248	-595.42841	351.75812	169.99344	-731.69623	344.64798	165.92763	-443.60150	449.11099	146.85663	-450.63846	75.08441	144.57599	-806.26648	82.77552	142.54877	-799.00403	457.85214	145.72655	
187	3.720	-300.14908	236.15375	1633.27222	-407.46140	53.74072	1346.20691	-386.63495	428.83719	1343.94128	-443.44431	253.38872	1234.09937	-673.32196	159.48901	1020.44312	-664.20435	378.08652	1028.01709	-868.31909	251.52696	1080.57312	-724.14789	95.59136	885.97858	-667.90912	150.58644	841.05359	-755.27734	86.90665	741.59869	-741.10986	122.77949	597.68103	-717.44281	232.52235	553.95349	-760.66125	122.11237	529.87451	-678.24695	169.62125	550.04218	-783.96161	123.79086	456.03253	-693.37421	141.94611	212.88875	-617.38525	77.05156	166.62508	-573.06024	49.17457	160.09097	-494.86081	92.92760	161.21152	-533.32928	143.80551	165.11705	-641.38446	215.60757	226.03922	-593.55261	186.82445	173.91817	-717.85809	212.13805	170.77960	-711.79175	436.22098	878.74500	-660.50464	374.42288	835.49554	-737.75195	448.33447	743.45056	-750.74390	419.61584	614.68414	-708.34668	315.22046	570.71759	-745.39185	416.99426	552.53540	-688.19318	374.60205	540.92859	-786.40295	424.63498	492.17300	-686.93732	417.55759	210.33461	-585.59106	468.63425	163.54660	-546.44348	479.54550	159.40862	-489.75729	427.13861	167.13737	-526.33429	387.78876	176.67088	-648.83002	330.15921	211.85307	-595.40771	351.69696	169.88200	-731.71686	344.64594	165.92444	-443.57635	449.08389	146.83560	-450.64444	75.02560	144.65785	-806.32288	82.82401	142.55045	-798.95544	457.86618	145.79633	
